<svg width="24" height="24" viewBox="0 0 24 24" fill="none" xmlns="http://www.w3.org/2000/svg">
<g clip-path="url(#clip0_2085_15463)">
<path fill-rule="evenodd" clip-rule="evenodd" d="M2.76971 3.81032C0.0480652 7.02682 0.196519 11.8763 3.21508 14.8949C6.38209 18.0619 11.479 18.1114 14.6955 14.9938L14.8439 14.8454L14.9924 14.6969C18.1099 11.4804 18.0604 6.38352 14.8934 3.21651C11.9738 0.296922 7.42126 0.0494995 4.20477 2.42476C3.66044 2.82063 3.36353 3.11754 2.76971 3.76084V3.81032ZM8.75734 3.36496H9.45013V8.65981H14.745V9.35259H9.45013V14.6474H8.75734V9.35259H3.4625V8.65981H8.75734V3.36496ZM15.8336 15.0433L24.0481 23.2577L23.2563 24.0495L15.0419 15.8351C11.479 19.0021 6.03569 18.9031 2.67075 15.4887C-0.793172 12.0248 -0.842656 6.433 2.52229 2.9196L2.67075 2.77115L2.72023 2.72166L2.76971 2.67218L2.91817 2.52373C6.43157 -0.841222 12.0233 -0.791738 15.4872 2.67218C18.9017 6.08661 19.0006 11.5299 15.8336 15.0433Z" fill="#939393"/>
</g>
<defs>
<clipPath id="clip0_2085_15463">
<rect width="24" height="24" fill="white"/>
</clipPath>
</defs>
</svg>
