<svg width="35" height="35" viewBox="0 0 35 35" fill="none" xmlns="http://www.w3.org/2000/svg">
<g clip-path="url(#clip0_122_4531)">
<path d="M30.0493 27.1892C29.4562 27.1896 28.8763 27.0141 28.383 26.6849C27.8896 26.3557 27.505 25.8876 27.2777 25.3398C27.0504 24.7919 26.9907 24.189 27.1062 23.6072C27.2216 23.0255 27.507 22.491 27.9262 22.0715C28.3455 21.6519 28.8797 21.3661 29.4614 21.2503C30.0431 21.1344 30.6461 21.1937 31.1941 21.4205C31.7421 21.6474 32.2105 22.0317 32.54 22.5248C32.8696 23.0179 33.0455 23.5977 33.0455 24.1908C33.0451 24.9855 32.7294 25.7476 32.1677 26.3098C31.6059 26.8719 30.8441 27.1882 30.0493 27.1892ZM30.0493 22.2863C29.6726 22.2858 29.3041 22.3972 28.9906 22.6062C28.6771 22.8152 28.4327 23.1125 28.2882 23.4605C28.1437 23.8084 28.1057 24.1915 28.1789 24.5611C28.2522 24.9307 28.4334 25.2702 28.6996 25.5368C28.9659 25.8034 29.3053 25.985 29.6748 26.0587C30.0443 26.1323 30.4274 26.0947 30.7755 25.9507C31.1237 25.8066 31.4212 25.5624 31.6306 25.2492C31.84 24.9359 31.9517 24.5676 31.9517 24.1908C31.9516 23.6861 31.7511 23.2022 31.3945 22.8451C31.0378 22.488 30.554 22.287 30.0493 22.2863Z" fill="#51801A"/>
<path d="M14.2493 27.1892C13.6562 27.1897 13.0762 27.0144 12.5827 26.6853C12.0893 26.3562 11.7045 25.8881 11.4771 25.3403C11.2497 24.7925 11.1899 24.1895 11.3053 23.6077C11.4207 23.0259 11.706 22.4913 12.1252 22.0717C12.5444 21.6521 13.0787 21.3663 13.6604 21.2503C14.2421 21.1344 14.8451 21.1936 15.3931 21.4205C15.9412 21.6473 16.4096 22.0316 16.7392 22.5248C17.0688 23.0179 17.2447 23.5977 17.2447 24.1908C17.2441 24.9854 16.9285 25.7472 16.3669 26.3093C15.8054 26.8714 15.0438 27.1878 14.2493 27.1892ZM14.2493 22.2863C13.8725 22.2857 13.504 22.3969 13.1904 22.6058C12.8768 22.8147 12.6322 23.112 12.4876 23.46C12.343 23.8079 12.3049 24.191 12.378 24.5606C12.4512 24.9303 12.6324 25.2699 12.8986 25.5365C13.1649 25.8032 13.5042 25.9849 13.8737 26.0586C14.2433 26.1323 14.6264 26.0948 14.9746 25.9507C15.3227 25.8067 15.6204 25.5625 15.8298 25.2493C16.0392 24.936 16.151 24.5677 16.151 24.1908C16.1506 23.6863 15.9502 23.2026 15.5937 22.8455C15.2373 22.4885 14.7538 22.2874 14.2493 22.2863Z" fill="#51801A"/>
<path d="M33.9945 24.7377H32.4989C32.3539 24.7377 32.2148 24.6801 32.1122 24.5775C32.0097 24.475 31.9521 24.3359 31.9521 24.1908C31.9521 24.0458 32.0097 23.9067 32.1122 23.8041C32.2148 23.7016 32.3539 23.644 32.4989 23.644H33.8399V20.7441C33.8395 20.352 33.7391 19.9665 33.5482 19.6241L30.5878 14.3165C30.5625 14.2712 30.5256 14.2334 30.4808 14.2072C30.4361 14.1809 30.3852 14.167 30.3333 14.167H26.2988V23.6462H27.6011C27.7462 23.6462 27.8853 23.7038 27.9878 23.8063C28.0904 23.9089 28.148 24.048 28.148 24.193C28.148 24.3381 28.0904 24.4772 27.9878 24.5797C27.8853 24.6823 27.7462 24.7399 27.6011 24.7399H25.752C25.6069 24.7399 25.4678 24.6823 25.3653 24.5797C25.2627 24.4772 25.2051 24.3381 25.2051 24.193V13.6201C25.2051 13.4751 25.2627 13.336 25.3653 13.2334C25.4678 13.1309 25.6069 13.0732 25.752 13.0732H30.3333C30.58 13.0731 30.8223 13.1389 31.0351 13.2637C31.2479 13.3886 31.4235 13.568 31.5437 13.7835L34.5034 19.0918C34.7848 19.597 34.9326 20.1657 34.9329 20.7441V23.7993C34.9325 24.0481 34.8335 24.2865 34.6576 24.4624C34.4817 24.6383 34.2432 24.7373 33.9945 24.7377Z" fill="#51801A"/>
<path d="M11.8001 24.7377H6.55664C6.4116 24.7377 6.2725 24.6801 6.16994 24.5775C6.06738 24.475 6.00977 24.3359 6.00977 24.1908V19.985C6.00977 19.8399 6.06738 19.7008 6.16994 19.5983C6.2725 19.4957 6.4116 19.4381 6.55664 19.4381C6.70168 19.4381 6.84078 19.4957 6.94334 19.5983C7.0459 19.7008 7.10352 19.8399 7.10352 19.985V23.6439H11.8001C11.9451 23.6439 12.0842 23.7016 12.1868 23.8041C12.2893 23.9067 12.347 24.0458 12.347 24.1908C12.347 24.3359 12.2893 24.475 12.1868 24.5775C12.0842 24.6801 11.9451 24.7377 11.8001 24.7377Z" fill="#51801A"/>
<path d="M6.55664 18.0447C6.4116 18.0447 6.2725 17.9871 6.16994 17.8845C6.06738 17.782 6.00977 17.6429 6.00977 17.4978V13.8257C6.00977 13.6807 6.06738 13.5416 6.16994 13.439C6.2725 13.3365 6.4116 13.2789 6.55664 13.2789C6.70168 13.2789 6.84078 13.3365 6.94334 13.439C7.0459 13.5416 7.10352 13.6807 7.10352 13.8257V17.5C7.10294 17.6447 7.04507 17.7832 6.94257 17.8853C6.84007 17.9874 6.7013 18.0447 6.55664 18.0447Z" fill="#51801A"/>
<path d="M25.752 24.7377H16.6979C16.5529 24.7377 16.4138 24.6801 16.3112 24.5775C16.2086 24.475 16.151 24.3359 16.151 24.1908C16.151 24.0458 16.2086 23.9067 16.3112 23.8041C16.4138 23.7016 16.5529 23.644 16.6979 23.644H25.2051V9.33698H7.10352V11.5894C7.10352 11.7344 7.0459 11.8735 6.94334 11.9761C6.84078 12.0786 6.70168 12.1362 6.55664 12.1362C6.4116 12.1362 6.2725 12.0786 6.16994 11.9761C6.06738 11.8735 6.00977 11.7344 6.00977 11.5894V9.23635C6.01015 8.97295 6.11501 8.72046 6.30133 8.53427C6.48765 8.34809 6.74022 8.24342 7.00362 8.24323H25.3057C25.569 8.24361 25.8214 8.34837 26.0075 8.53453C26.1937 8.72069 26.2984 8.97308 26.2988 9.23635V24.1908C26.2988 24.3359 26.2412 24.475 26.1387 24.5775C26.0361 24.6801 25.897 24.7377 25.752 24.7377Z" fill="#51801A"/>
<path d="M8.71828 20.5319H1.77734C1.6323 20.5319 1.4932 20.4742 1.39064 20.3717C1.28809 20.2691 1.23047 20.13 1.23047 19.985C1.23047 19.8399 1.28809 19.7008 1.39064 19.5983C1.4932 19.4957 1.6323 19.4381 1.77734 19.4381H8.71828C8.86332 19.4381 9.00242 19.4957 9.10498 19.5983C9.20754 19.7008 9.26516 19.8399 9.26516 19.985C9.26516 20.13 9.20754 20.2691 9.10498 20.3717C9.00242 20.4742 8.86332 20.5319 8.71828 20.5319Z" fill="#51801A"/>
<path d="M14.249 18.0447H4.56348C4.41844 18.0447 4.27934 17.9871 4.17678 17.8845C4.07422 17.7819 4.0166 17.6428 4.0166 17.4978C4.0166 17.3528 4.07422 17.2137 4.17678 17.1111C4.27934 17.0085 4.41844 16.9509 4.56348 16.9509H14.249C14.394 16.9509 14.5331 17.0085 14.6357 17.1111C14.7383 17.2137 14.7959 17.3528 14.7959 17.4978C14.7959 17.6428 14.7383 17.7819 14.6357 17.8845C14.5331 17.9871 14.394 18.0447 14.249 18.0447Z" fill="#51801A"/>
<path d="M4.26266 15.1572H0.480469C0.335428 15.1572 0.196329 15.0995 0.0937697 14.997C-0.00878923 14.8944 -0.0664062 14.7553 -0.0664062 14.6103C-0.0664062 14.4653 -0.00878923 14.3262 0.0937697 14.2236C0.196329 14.121 0.335428 14.0634 0.480469 14.0634H4.26266C4.4077 14.0634 4.5468 14.121 4.64935 14.2236C4.75191 14.3262 4.80953 14.4653 4.80953 14.6103C4.80953 14.7553 4.75191 14.8944 4.64935 14.997C4.5468 15.0995 4.4077 15.1572 4.26266 15.1572Z" fill="#51801A"/>
<path d="M10.3276 12.1362H3.65137C3.50633 12.1362 3.36723 12.0786 3.26467 11.9761C3.16211 11.8735 3.10449 11.7344 3.10449 11.5894C3.10449 11.4443 3.16211 11.3052 3.26467 11.2027C3.36723 11.1001 3.50633 11.0425 3.65137 11.0425H10.3276C10.4727 11.0425 10.6118 11.1001 10.7143 11.2027C10.8169 11.3052 10.8745 11.4443 10.8745 11.5894C10.8745 11.7344 10.8169 11.8735 10.7143 11.9761C10.6118 12.0786 10.4727 12.1362 10.3276 12.1362Z" fill="#51801A"/>
</g>
<defs>
<clipPath id="clip0_122_4531">
<rect width="35" height="35" fill="white"/>
</clipPath>
</defs>
</svg>
