<svg width="22" height="22" viewBox="0 0 22 22" fill="none" xmlns="http://www.w3.org/2000/svg">
<g clip-path="url(#clip0_4015_1500)">
<path d="M0.792236 0.780457H4.60394L5.96182 14.2812C6.01826 14.6534 6.2073 14.9926 6.49412 15.2364C6.78093 15.4802 7.1462 15.6121 7.5226 15.6079H17.3555C17.6959 15.6257 18.0328 15.5315 18.3145 15.3399C18.5964 15.1482 18.8077 14.8696 18.9163 14.5466L20.9922 8.30343C21.0696 8.06872 21.0902 7.81896 21.0521 7.57476C21.0142 7.33055 20.9186 7.09885 20.7736 6.89873C20.6226 6.68596 20.4204 6.51448 20.186 6.39995C19.9516 6.28543 19.692 6.23154 19.4314 6.2432H5.15021" stroke="white" stroke-width="1.45695" stroke-linecap="round" stroke-linejoin="round"/>
<path d="M17.09 21.0707C16.659 21.0707 16.3096 20.7212 16.3096 20.2903C16.3096 19.8593 16.659 19.5099 17.09 19.5099C17.5209 19.5099 17.8704 19.8593 17.8704 20.2903C17.8704 20.7212 17.5209 21.0707 17.09 21.0707Z" stroke="white" stroke-width="1.45695" stroke-linecap="round" stroke-linejoin="round"/>
<path d="M6.9447 21.0707C6.51369 21.0707 6.16431 20.7212 6.16431 20.2903C6.16431 19.8593 6.51369 19.5099 6.9447 19.5099C7.37569 19.5099 7.72509 19.8593 7.72509 20.2903C7.72509 20.7212 7.37569 21.0707 6.9447 21.0707Z" stroke="white" stroke-width="1.45695" stroke-linecap="round" stroke-linejoin="round"/>
</g>
<defs>
<clipPath id="clip0_4015_1500">
<rect width="21.851" height="21.851" fill="white"/>
</clipPath>
</defs>
</svg>
