<svg width="26" height="26" viewBox="0 0 26 26" fill="none" xmlns="http://www.w3.org/2000/svg">
<g clip-path="url(#clip0_2001_4979)">
<path d="M5.6869 19.5444H2.3887C2.17725 19.5444 2.00586 19.7158 2.00586 19.9273C2.00586 20.1385 2.17725 20.3099 2.3887 20.3099H5.6869C5.89816 20.3099 6.06954 20.1385 6.06954 19.9273C6.06954 19.7158 5.89816 19.5444 5.6869 19.5444Z" fill="white"/>
<path d="M5.6869 21.4846H2.3887C2.17725 21.4846 2.00586 21.656 2.00586 21.8672C2.00586 22.0787 2.17725 22.2499 2.3887 22.2499H5.6869C5.89816 22.2499 6.06954 22.0787 6.06954 21.8672C6.06954 21.656 5.89816 21.4846 5.6869 21.4846Z" fill="white"/>
<path d="M5.6869 23.4248H2.3887C2.17725 23.4248 2.00586 23.596 2.00586 23.8075C2.00586 24.0187 2.17725 24.1901 2.3887 24.1901H5.6869C5.89816 24.1901 6.06954 24.0187 6.06954 23.8075C6.06954 23.596 5.89816 23.4248 5.6869 23.4248Z" fill="white"/>
<path d="M12.919 11.4962C12.1073 11.4962 11.4468 12.1566 11.4468 12.9683C11.4468 13.78 12.1073 14.4405 12.919 14.4405C13.7307 14.4405 14.3911 13.78 14.3911 12.9683C14.3911 12.1566 13.7307 11.4962 12.919 11.4962ZM12.919 13.675C12.5292 13.675 12.2123 13.358 12.2123 12.9683C12.2123 12.5785 12.5292 12.2615 12.919 12.2615C13.3088 12.2615 13.6258 12.5785 13.6258 12.9683C13.6258 13.358 13.3088 13.675 12.919 13.675Z" fill="white"/>
<path d="M24.8518 15.3971H22.2959V13.8673C22.2959 13.2341 21.8541 12.7192 21.3114 12.7192H16.2333C16.12 11.1993 14.9812 9.96132 13.508 9.6965V8.61502H15.1854C15.8183 8.61502 16.3333 8.10007 16.3333 7.46709V6.33126C16.3333 5.69828 15.8183 5.18333 15.1854 5.18333H13.508V4.76755C13.508 4.5565 13.6796 4.38471 13.8906 4.38471H17.7058V6.97158C17.7058 7.60455 18.2209 8.11951 18.8539 8.11951H24.6316C25.2646 8.11951 25.7798 7.60455 25.7798 6.97158V1.35153C25.7798 0.718551 25.2646 0.2034 24.6316 0.2034H18.8539C18.2209 0.2034 17.7058 0.718551 17.7058 1.35153V3.61942H13.8906C13.2575 3.61942 12.7425 4.13438 12.7425 4.76755V5.18313H10.8065C10.1735 5.18313 9.65854 5.69828 9.65854 6.33126V7.46709C9.65854 8.10007 10.1735 8.61502 10.8065 8.61502H12.7425V9.6479C10.9905 9.73974 9.59327 11.1938 9.59327 12.9683C9.59327 12.9975 9.59486 13.0264 9.59546 13.0554H5.89597C5.89597 13.0479 5.89656 13.0405 5.89656 13.0332C5.89656 11.9733 5.03428 11.111 3.97462 11.111C3.96787 11.111 3.96113 11.1116 3.95438 11.1116V4.69376H8.05397C8.68695 4.69376 9.2021 4.17861 9.2021 3.54563V1.30055C9.2021 0.667571 8.68695 0.15242 8.05397 0.15242H4.73276C4.52131 0.15242 4.34992 0.323806 4.34992 0.535064C4.34992 0.74652 4.52131 0.917906 4.73276 0.917906H8.05397C8.26503 0.917906 8.43661 1.08949 8.43661 1.30055V3.54563C8.43661 3.75669 8.26503 3.92828 8.05397 3.92828H1.21657C1.00551 3.92828 0.833922 3.75669 0.833922 3.54563V1.30055C0.833922 1.08949 1.00551 0.917906 1.21657 0.917906H5.67818C5.88944 0.917906 6.06082 0.74652 6.06082 0.535064C6.06082 0.323806 5.88944 0.15242 5.67818 0.15242H1.21657C0.583388 0.15242 0.0684355 0.667571 0.0684355 1.30055V3.54563C0.0684355 4.17861 0.583388 4.69376 1.21657 4.69376H3.1891V11.2796C2.52001 11.5808 2.05267 12.2532 2.05267 13.0332C2.05267 14.093 2.91476 14.9551 3.97462 14.9551C4.75359 14.9551 5.42545 14.4888 5.72696 13.8209H9.70456C10.0247 15.0267 11.0066 15.9654 12.2365 16.2229V19.9081C11.4254 20.091 10.8075 20.7876 10.7434 21.6368H8.07381V19.0575C8.07381 18.4243 7.55885 17.9094 6.92588 17.9094H1.14813C0.514953 17.9094 0 18.4243 0 19.0575V24.6773C0 25.3105 0.514953 25.8255 1.14813 25.8255H6.92588C7.55885 25.8255 8.07381 25.3105 8.07381 24.6773V22.4023H10.8402C11.0987 23.1589 11.8161 23.7046 12.6592 23.7046C13.719 23.7046 14.5811 22.8425 14.5811 21.7826C14.5811 20.8398 13.8986 20.0541 13.0018 19.8918V16.2915C14.6222 16.2512 15.9588 15.047 16.2034 13.4847H21.3114C21.3987 13.4847 21.5306 13.6372 21.5306 13.8673V15.3971H18.0144C17.3814 15.3971 16.8665 15.9122 16.8665 16.5452V18.7903C16.8665 19.4235 17.3814 19.9384 18.0144 19.9384H19.1796C19.3909 19.9384 19.5623 19.767 19.5623 19.5558C19.5623 19.3443 19.3909 19.1731 19.1796 19.1731H18.0144C17.8034 19.1731 17.6318 19.0014 17.6318 18.7903V16.5452C17.6318 16.3342 17.8034 16.1626 18.0144 16.1626H24.8518C25.0629 16.1626 25.2347 16.3342 25.2347 16.5452V18.7903C25.2347 19.0014 25.0629 19.1731 24.8518 19.1731H18.2342C18.0227 19.1731 17.8513 19.3443 17.8513 19.5558C17.8513 19.767 18.0227 19.9384 18.2342 19.9384H21.5306V21.976C20.6604 22.1593 20.0052 22.9327 20.0052 23.8565C20.0052 24.9164 20.8673 25.7785 21.9271 25.7785C22.987 25.7785 23.8491 24.9164 23.8491 23.8565C23.8491 22.923 23.1798 22.143 22.2959 21.9705V19.9384H24.852C25.485 19.9384 26 19.4233 26 18.7903V16.5452C26 15.912 25.485 15.3971 24.8518 15.3971ZM18.4712 1.35153C18.4712 1.14047 18.6428 0.968886 18.8539 0.968886H24.6316C24.8427 0.968886 25.0143 1.14047 25.0143 1.35153V6.97158C25.0143 7.18244 24.8427 7.35422 24.6316 7.35422H18.8539C18.6428 7.35422 18.4712 7.18244 18.4712 6.97158V1.35153ZM10.4238 7.46709V6.33126C10.4238 6.1202 10.5954 5.94861 10.8065 5.94861H15.1854C15.3962 5.94861 15.568 6.1202 15.568 6.33126V7.46709C15.568 7.67795 15.3962 7.84973 15.1854 7.84973H10.8065C10.5954 7.84973 10.4238 7.67795 10.4238 7.46709ZM3.97462 14.1898C3.33688 14.1898 2.81796 13.6709 2.81796 13.0332C2.81796 12.3954 3.33688 11.8765 3.97462 11.8765C4.61236 11.8765 5.13108 12.3954 5.13108 13.0332C5.13108 13.6709 4.61236 14.1898 3.97462 14.1898ZM7.30852 24.6773C7.30852 24.8884 7.13674 25.06 6.92588 25.06H1.14813C0.937071 25.06 0.765288 24.8884 0.765288 24.6773V19.0573C0.765288 18.8462 0.937071 18.6746 1.14813 18.6746H6.92588C7.13674 18.6746 7.30852 18.8462 7.30852 19.0573V24.6773ZM13.8156 21.7826C13.8156 22.4204 13.2969 22.9391 12.6592 22.9391C12.0214 22.9391 11.5025 22.4204 11.5025 21.7826C11.5025 21.1449 12.0214 20.626 12.6592 20.626C13.2969 20.626 13.8156 21.1449 13.8156 21.7826ZM12.9184 15.5282C11.5069 15.5282 10.3586 14.3799 10.3586 12.9683C10.3586 11.5568 11.5069 10.4086 12.9184 10.4086C14.33 10.4086 15.4781 11.557 15.4781 12.9683C15.4781 14.3799 14.3298 15.5282 12.9184 15.5282ZM23.0836 23.8565C23.0836 24.4942 22.5649 25.0132 21.9271 25.0132C21.2894 25.0132 20.7705 24.4942 20.7705 23.8565C20.7705 23.2188 21.2894 22.6998 21.9271 22.6998C22.5649 22.6998 23.0836 23.2188 23.0836 23.8565Z" fill="white"/>
<path d="M20.095 2.60415H23.3932C23.6045 2.60415 23.7759 2.43277 23.7759 2.22131C23.7759 2.01006 23.6045 1.83867 23.3932 1.83867H20.095C19.8836 1.83867 19.7124 2.01006 19.7124 2.22131C19.7124 2.43277 19.8836 2.60415 20.095 2.60415Z" fill="white"/>
<path d="M20.095 4.54411H23.3932C23.6045 4.54411 23.7759 4.37273 23.7759 4.16147C23.7759 3.95001 23.6045 3.77882 23.3932 3.77882H20.095C19.8836 3.77882 19.7124 3.95001 19.7124 4.16147C19.7124 4.37273 19.8836 4.54411 20.095 4.54411Z" fill="white"/>
<path d="M20.095 6.48431H23.3932C23.6045 6.48431 23.7759 6.31293 23.7759 6.10167C23.7759 5.89021 23.6045 5.71883 23.3932 5.71883H20.095C19.8836 5.71883 19.7124 5.89021 19.7124 6.10167C19.7124 6.31293 19.8836 6.48431 20.095 6.48431Z" fill="white"/>
</g>
<defs>
<clipPath id="clip0_2001_4979">
<rect width="26" height="26" fill="white"/>
</clipPath>
</defs>
</svg>
