<svg width="20" height="20" viewBox="0 0 20 20" fill="none" xmlns="http://www.w3.org/2000/svg">
<g clip-path="url(#clip0_4001_3269)">
<path d="M7.90953 18.4413C6.81141 18.4413 5.91797 17.5479 5.91797 16.4497C5.91797 15.3516 6.81141 14.4585 7.90953 14.4585C9.00766 14.4585 9.90109 15.3516 9.90109 16.4497C9.90109 17.5479 9.00766 18.4413 7.90953 18.4413ZM7.90953 15.7085C7.50078 15.7085 7.16797 16.041 7.16797 16.4497C7.16797 16.8588 7.50047 17.1913 7.90953 17.1913C8.31859 17.1913 8.65109 16.8588 8.65109 16.4497C8.65109 16.041 8.31859 15.7085 7.90953 15.7085Z" fill="white"/>
<path d="M14.8311 18.4413C13.733 18.4413 12.8398 17.5479 12.8398 16.4497C12.8398 15.3516 13.733 14.4585 14.8311 14.4585C15.9292 14.4585 16.8227 15.3516 16.8227 16.4497C16.8227 17.5479 15.9289 18.4413 14.8311 18.4413ZM14.8311 15.7085C14.4223 15.7085 14.0898 16.041 14.0898 16.4497C14.0898 16.8588 14.4223 17.1913 14.8311 17.1913C15.2402 17.1913 15.5727 16.8588 15.5727 16.4497C15.5727 16.041 15.2398 15.7085 14.8311 15.7085Z" fill="white"/>
<path d="M16.2911 12.9149H6.47265C5.51734 12.9149 4.70141 12.2646 4.48828 11.3333L2.45047 2.43428C2.42359 2.31678 2.34234 2.21615 2.23297 2.16553L0.542655 1.38209C0.151405 1.20084 -0.0189073 0.736464 0.162343 0.344901C0.343593 -0.0463487 0.80828 -0.216661 1.19953 -0.0354112L2.88984 0.748026C3.43453 1.00021 3.83984 1.50021 3.97359 2.08553L6.0114 10.9852C6.06078 11.2015 6.25047 11.3527 6.47265 11.3527H16.2911C16.5123 11.3527 16.7017 11.2024 16.7523 10.9868L18.3367 4.17021C18.382 3.97646 18.2995 3.83553 18.2467 3.76896C18.1936 3.70209 18.0748 3.59021 17.8761 3.59021H6.31359C5.88203 3.59021 5.53234 3.24053 5.53234 2.80896C5.53234 2.3774 5.88203 2.02771 6.31359 2.02771H17.8761C18.5008 2.02771 19.0814 2.30803 19.4702 2.79709C19.8589 3.28615 20.0002 3.91553 19.8589 4.52396L18.2742 11.3408C18.0583 12.2674 17.243 12.9149 16.2911 12.9149Z" fill="white"/>
</g>
<defs>
<clipPath id="clip0_4001_3269">
<rect width="20" height="20" fill="white"/>
</clipPath>
</defs>
</svg>
