<svg width="22" height="23" viewBox="0 0 22 23" fill="none" xmlns="http://www.w3.org/2000/svg">
<g clip-path="url(#clip0_4001_156)">
<path d="M0.792236 1.65143H4.60394L5.96182 15.1522C6.01826 15.5244 6.2073 15.8636 6.49412 16.1074C6.78093 16.3512 7.1462 16.4831 7.5226 16.4789H17.3555C17.6959 16.4967 18.0328 16.4025 18.3145 16.2109C18.5964 16.0192 18.8077 15.7406 18.9163 15.4175L20.9922 9.1744C21.0696 8.93969 21.0902 8.68994 21.0521 8.44574C21.0142 8.20152 20.9186 7.96982 20.7736 7.7697C20.6226 7.55693 20.4204 7.38545 20.186 7.27092C19.9516 7.1564 19.692 7.10251 19.4314 7.11417H5.15021" stroke="#352C2B" stroke-width="1.45695" stroke-linecap="round" stroke-linejoin="round"/>
<path d="M17.09 21.9416C16.659 21.9416 16.3096 21.5922 16.3096 21.1613C16.3096 20.7303 16.659 20.3809 17.09 20.3809C17.5209 20.3809 17.8704 20.7303 17.8704 21.1613C17.8704 21.5922 17.5209 21.9416 17.09 21.9416Z" stroke="#352C2B" stroke-width="1.45695" stroke-linecap="round" stroke-linejoin="round"/>
<path d="M6.9447 21.9416C6.51369 21.9416 6.16431 21.5922 6.16431 21.1613C6.16431 20.7303 6.51369 20.3809 6.9447 20.3809C7.37569 20.3809 7.72509 20.7303 7.72509 21.1613C7.72509 21.5922 7.37569 21.9416 6.9447 21.9416Z" stroke="#352C2B" stroke-width="1.45695" stroke-linecap="round" stroke-linejoin="round"/>
</g>
<defs>
<clipPath id="clip0_4001_156">
<rect width="21.851" height="21.851" fill="white" transform="translate(0 0.870972)"/>
</clipPath>
</defs>
</svg>
