<svg width="46" height="46" viewBox="0 0 46 46" fill="none" xmlns="http://www.w3.org/2000/svg">
<path d="M26.6637 26.0309H25.5178V26.8584H26.6637C26.9957 26.8584 27.2691 26.6741 27.2691 26.4447C27.2691 26.2154 26.9957 26.0309 26.6637 26.0309Z" fill="white"/>
<path d="M19.9315 28.7653V25.7279L18.5571 27.2434L19.9315 28.7653Z" fill="white"/>
<path d="M22.3841 18.626H21.2383V19.4538H22.3841C22.7169 19.4538 22.9904 19.2689 22.9904 19.04C22.9904 18.8107 22.7169 18.626 22.3841 18.626Z" fill="white"/>
<path d="M22.1846 26.0229H21.0396V26.8505H22.1846C22.5173 26.8505 22.7908 26.666 22.7908 26.4368C22.7908 26.2083 22.5173 26.0229 22.1846 26.0229Z" fill="white"/>
<path d="M6.54077 19.964H7.61958L7.08039 18.6633L6.54077 19.964Z" fill="#333333"/>
<path d="M13.613 26.0454V26.7174H15.8887V27.7085H13.613V28.4479H15.948L17.0417 27.2434L15.948 26.0454H13.613Z" fill="white"/>
<path d="M41.4698 10H3.53019C2.13282 10 1 11.1328 1 12.5302V34.1905C1 35.5879 2.13282 36.7207 3.53019 36.7207H41.4698C42.8672 36.7207 44 35.5879 44 34.1905V12.5302C44 11.1328 42.8672 10 41.4698 10ZM27.9266 17.5916L29.2937 17.6289V18.6115L28.1711 18.626C28.1711 18.626 27.4391 18.626 27.35 19.5796C27.3396 19.6891 27.3349 19.7898 27.3356 19.8832C27.3396 21.3594 28.617 20.9011 28.6588 20.8874L30.0331 17.6288H31.5845L33.2468 21.5895V17.6288H34.8136L36.5504 20.5034V17.6288H37.6665V21.9956H36.1367L34.3781 19.0769V21.9956H33.4248H33.2467H32.206L31.8139 21.0795H29.7892L29.4043 21.9956H28.3844H28.1999H27.6676C27.6676 21.9956 26.1753 21.7815 26.1753 19.9341C26.1754 17.5102 27.868 17.6065 27.9266 17.5916ZM24.6832 17.629H25.7985V22.0106H24.6832V17.629ZM16.0955 17.629H19.5546V18.6485H17.2117V19.3208H19.4953V20.3111H17.2117V21.0503H19.5546V21.9957H16.0955V17.629ZM10.6643 18.9957V21.9957H9.69643H9.54845H8.47686L8.09279 21.0796H6.06811L5.6764 21.9957H4.46446L6.30428 17.6289H7.86384L9.54845 21.6413V17.6289H11.2997L12.5193 20.3407L13.7318 17.6289H15.483V21.9957H14.3588V18.9811L12.97 21.9957H12.0612L10.6643 18.9957ZM22.1252 27.9891H21.0395V29.3932H19.9459H18.9772L17.8034 28.0997L16.6199 29.3932H15.9479H12.4968V25.0186H15.9479H16.5317L17.8034 26.408L19.0816 25.0259H19.9315V25.0186H22.6209C22.6209 25.0186 24.025 24.8632 24.025 26.3037C24.025 27.5898 23.559 27.9891 22.1252 27.9891ZM24.1427 20.9172V21.9957H23.057V21.1462C23.057 21.1462 23.0121 20.481 22.3177 20.481H21.2384V21.9957H20.1303V17.6289H22.8204C22.8204 17.6289 24.2244 17.4589 24.2244 18.907C24.2244 19.6608 23.6038 19.9265 23.6038 19.9265C23.6038 19.9265 24.1427 20.1783 24.1427 20.9172ZM28.415 28.321V29.4003H27.3356V28.5504C27.3356 28.5504 27.2907 27.8857 26.5963 27.8857H25.5177V29.4003H24.4088V25.0332H27.0989C27.0989 25.0332 28.503 24.8633 28.503 26.3117C28.503 27.0654 27.8824 27.3317 27.8824 27.3317C27.8824 27.3317 28.415 27.5826 28.415 28.321ZM32.4194 26.0454H30.0771V26.7174H32.3607V27.7085H30.0771V28.4478H32.4194V29.3932H28.9618V25.0332H32.4194V26.0454ZM35.0293 29.3914C34.9459 29.3914 34.8952 29.3859 34.8952 29.3859H32.9219V28.3803H34.6516C34.6516 28.3803 35.2722 28.4542 35.2722 28.034C35.2722 27.641 34.3341 27.6715 34.3341 27.6715C34.3341 27.6715 32.8042 27.8047 32.8042 26.371C32.8042 24.9446 34.1857 25.0259 34.1857 25.0259H36.3145V26.0455H34.6003C34.6003 26.0455 34.0086 25.9269 34.0086 26.3566C34.0086 26.7174 34.8136 26.6661 34.8136 26.6661C34.8136 26.6661 36.5062 26.5411 36.5062 27.856C36.5062 29.2664 35.4157 29.3914 35.0293 29.3914ZM38.9383 29.3914C38.8548 29.3914 38.8042 29.3859 38.8042 29.3859H36.831V28.3803H38.5533C38.5533 28.3803 39.1812 28.4542 39.1812 28.034C39.1812 27.641 38.2432 27.6715 38.2432 27.6715C38.2432 27.6715 36.7131 27.8047 36.7131 26.371C36.7131 24.9446 38.0946 25.0259 38.0946 25.0259H40.2163V26.0455H38.5085C38.5085 26.0455 37.9174 25.9269 37.9174 26.3566C37.9174 26.7174 38.7234 26.6661 38.7234 26.6661C38.7234 26.6661 40.4151 26.5411 40.4151 27.856C40.4151 29.2664 39.3247 29.3914 38.9383 29.3914Z" fill="white"/>
<path d="M30.809 18.6633L30.2622 19.964H31.3406L30.809 18.6633Z" fill="white"/>
</svg>
