<svg width="46" height="46" viewBox="0 0 46 46" fill="none" xmlns="http://www.w3.org/2000/svg">
<g clip-path="url(#clip0_4008_40)">
<path d="M46 35.7966C46 36.7395 45.2365 37.503 44.2936 37.503H1.70607C0.763781 37.503 0 36.7395 0 35.7966V10.2033C0 9.261 0.763781 8.49695 1.70607 8.49695H44.2937C45.2366 8.49695 46.0001 9.261 46.0001 10.2033L46 35.7966Z" fill="white"/>
<path d="M17.4835 16.8959L12.3653 29.1091H9.02462L6.50772 19.3633C6.35274 18.7622 6.22029 18.5436 5.7557 18.2884C4.9947 17.8769 3.74281 17.4909 2.63745 17.2505L2.71476 16.896H8.08943C8.77491 16.896 9.39116 17.3532 9.54614 18.1414L10.877 25.2102L14.1641 16.896L17.4835 16.8959ZM30.5689 25.1197C30.5837 21.8981 26.1111 21.7227 26.1433 20.2815C26.152 19.8416 26.569 19.376 27.4822 19.2584C27.9356 19.1981 29.1836 19.1539 30.598 19.8032L31.1524 17.2146C30.3914 16.9384 29.4132 16.6738 28.1974 16.6738C25.0748 16.6738 22.8765 18.3347 22.858 20.7112C22.8375 22.4686 24.4263 23.4493 25.6248 24.0345C26.8554 24.6335 27.2668 25.0158 27.2625 25.5529C27.2544 26.3726 26.2806 26.7309 25.3724 26.7469C23.7836 26.7717 22.862 26.3175 22.1261 25.9748L21.5541 28.6525C22.2912 28.9909 23.6561 29.2848 25.0686 29.3022C28.3873 29.3021 30.5584 27.6589 30.5689 25.1197ZM38.815 29.109H41.7377L39.1874 16.8958H36.4892C35.8829 16.8958 35.3718 17.2494 35.1441 17.791L30.4061 29.1089H33.7223L34.3806 27.285H38.4343L38.815 29.109ZM35.2895 24.7819L36.9532 20.1961L37.9103 24.7819H35.2895ZM21.9986 16.8959L19.3845 29.109H16.2245L18.8392 16.8958H21.9986V16.8959Z" fill="#272727"/>
</g>
<defs>
<clipPath id="clip0_4008_40">
<rect width="46" height="46" fill="white"/>
</clipPath>
</defs>
</svg>
