<svg width="27" height="27" viewBox="0 0 27 27" fill="none" xmlns="http://www.w3.org/2000/svg">
<path d="M10.1251 21.9375H5.90636C5.23136 21.9375 4.55636 21.6 4.13449 21.0938C3.71261 20.5875 3.54386 19.9125 3.71261 19.2375L7.34074 3.375C7.59386 2.3625 8.43761 1.6875 9.53449 1.6875H16.7907C18.7314 1.6875 20.5032 2.53125 21.7689 4.05C22.9501 5.56875 23.4564 7.50938 23.0345 9.45C22.3595 12.825 19.322 15.1875 15.8626 15.1875H13.1626C12.7407 15.1875 12.3189 15.525 12.2345 15.9469L10.9689 21.2625C10.8845 21.6844 10.547 21.9375 10.1251 21.9375Z" fill="black"/>
<path d="M10.1251 21.9375H5.90636C5.23136 21.9375 4.55636 21.6 4.13449 21.0938C3.71261 20.5875 3.54386 19.9125 3.71261 19.2375L7.34074 3.375C7.59386 2.3625 8.43761 1.6875 9.53449 1.6875H16.7907C18.7314 1.6875 20.5032 2.53125 21.7689 4.05C22.9501 5.56875 23.4564 7.50938 23.0345 9.45C22.3595 12.825 19.322 15.1875 15.8626 15.1875H13.1626C12.7407 15.1875 12.3189 15.525 12.2345 15.9469L10.9689 21.2625C10.8845 21.6844 10.547 21.9375 10.1251 21.9375Z" fill="white"/>
<path d="M24.7219 9.53442V9.78755C23.8781 13.9219 20.1656 16.875 15.9469 16.875H13.8375L12.6562 21.6844C12.3187 22.8657 11.3062 23.625 10.125 23.625H8.4375C8.52187 23.9625 8.60625 24.2157 8.85937 24.4688C9.28125 24.975 9.87187 25.2282 10.5469 25.2282H14.3437C14.7656 25.2282 15.1031 24.975 15.1875 24.6376L16.3687 19.9969C16.4531 19.6594 16.7906 19.4907 17.1281 19.4907H19.575C22.6969 19.4907 25.4812 17.3813 26.0719 14.4282C26.4094 12.6563 25.9031 10.8 24.7219 9.53442Z" fill="#8B8B8B"/>
</svg>
