<svg width="46" height="46" viewBox="0 0 46 46" fill="none" xmlns="http://www.w3.org/2000/svg">
<path fill-rule="evenodd" clip-rule="evenodd" d="M3.62721 8H42.3727C44.3678 8 46 9.63218 46 11.6272V33.5555C46 35.5506 44.3678 37.1828 42.3727 37.1828H3.62721C1.63222 37.1828 0 35.5506 0 33.5555V11.6272C0 9.63218 1.63222 8 3.62721 8Z" fill="white"/>
<path fill-rule="evenodd" clip-rule="evenodd" d="M3.62725 8.71863C2.02894 8.71863 0.71875 10.0289 0.71875 11.6272V33.5554C0.71875 35.1537 2.02895 36.464 3.62725 36.464H42.3727C43.9711 36.464 45.2813 35.1538 45.2813 33.5554V11.6272C45.2813 10.0288 43.9711 8.71863 42.3727 8.71863H3.62725Z" fill="white"/>
<path d="M30.2384 33.3515C36.1828 33.3515 41.0017 28.5326 41.0017 22.5882C41.0017 16.6438 36.1828 11.825 30.2384 11.825C24.294 11.825 19.4751 16.6438 19.4751 22.5882C19.4751 28.5326 24.294 33.3515 30.2384 33.3515Z" fill="#656565"/>
<path fill-rule="evenodd" clip-rule="evenodd" d="M23.0002 14.6183C23.1997 14.7994 23.3922 14.988 23.5776 15.1834H22.4221C22.6075 14.988 22.8008 14.7994 23.0002 14.6183Z" fill="#FAC23C"/>
<path d="M15.7645 33.3515C21.7089 33.3515 26.5278 28.5326 26.5278 22.5882C26.5278 16.6438 21.7089 11.825 15.7645 11.825C9.82011 11.825 5.00122 16.6438 5.00122 22.5882C5.00122 28.5326 9.82011 33.3515 15.7645 33.3515Z" fill="#272727"/>
<path fill-rule="evenodd" clip-rule="evenodd" d="M24.1205 15.8013C24.2698 15.9847 24.4132 16.1732 24.5503 16.3664H21.4497C21.5868 16.1732 21.7302 15.9847 21.8795 15.8013H24.1205Z" fill="#838383"/>
<path fill-rule="evenodd" clip-rule="evenodd" d="M24.9573 16.984C25.0703 17.1688 25.1779 17.3572 25.2798 17.5491H20.72C20.8219 17.3572 20.9295 17.1688 21.0425 16.984H24.9573Z" fill="#838383"/>
<path fill-rule="evenodd" clip-rule="evenodd" d="M25.583 18.1669C25.6667 18.3525 25.7453 18.541 25.8186 18.732H20.1814C20.2548 18.541 20.3333 18.3525 20.4171 18.1669H25.583Z" fill="#838383"/>
<path fill-rule="evenodd" clip-rule="evenodd" d="M26.0347 19.3499C26.0934 19.5361 26.1471 19.7245 26.1958 19.915H19.8044C19.8532 19.7245 19.9069 19.5361 19.9656 19.3499H26.0347Z" fill="#838383"/>
<path fill-rule="evenodd" clip-rule="evenodd" d="M26.3343 20.5326C26.3705 20.7193 26.4018 20.9077 26.4282 21.0977H19.5718C19.5982 20.9077 19.6295 20.7193 19.6657 20.5326H26.3343Z" fill="#838383"/>
<path fill-rule="evenodd" clip-rule="evenodd" d="M26.4959 21.7153C26.511 21.9024 26.5211 22.0908 26.5265 22.2805H19.4731C19.4785 22.0908 19.4887 21.9024 19.5038 21.7153H26.4959Z" fill="#838383"/>
<path fill-rule="evenodd" clip-rule="evenodd" d="M26.5268 22.8982C26.5215 23.0878 26.5113 23.2763 26.4963 23.4633H19.5036C19.4886 23.2763 19.4785 23.0878 19.4731 22.8982H26.5268Z" fill="#838383"/>
<path fill-rule="evenodd" clip-rule="evenodd" d="M26.4289 24.0811C26.4026 24.271 26.3713 24.4595 26.3353 24.6462H19.665C19.6289 24.4595 19.5976 24.271 19.5713 24.0811H26.4289Z" fill="#838383"/>
<path fill-rule="evenodd" clip-rule="evenodd" d="M26.1966 25.2638C26.148 25.4542 26.0944 25.6427 26.0357 25.8289H19.9641C19.9055 25.6427 19.8519 25.4542 19.8032 25.2638H26.1966Z" fill="#838383"/>
<path fill-rule="evenodd" clip-rule="evenodd" d="M25.8203 26.4465C25.747 26.6376 25.6686 26.826 25.5849 27.0117H20.4153C20.3316 26.826 20.2532 26.6376 20.1799 26.4465H25.8203Z" fill="#838383"/>
<path fill-rule="evenodd" clip-rule="evenodd" d="M25.2822 27.6296C25.1804 27.8215 25.0729 28.01 24.9601 28.1948H21.0402C20.9273 28.01 20.8198 27.8215 20.718 27.6296H25.2822Z" fill="#838383"/>
<path fill-rule="evenodd" clip-rule="evenodd" d="M24.5532 28.8123C24.4162 29.0054 24.273 29.1939 24.1239 29.3774H21.8761C21.727 29.1939 21.5838 29.0054 21.4468 28.8123H24.5532Z" fill="#838383"/>
<path fill-rule="evenodd" clip-rule="evenodd" d="M38.8941 24.4194V20.7632H37.8677V22.0262C37.7681 21.9198 37.654 21.8407 37.5247 21.787C37.3962 21.7343 37.2532 21.7079 37.095 21.7079C36.7706 21.7079 36.5043 21.8245 36.2941 22.0577C36.0838 22.2909 35.9783 22.6271 35.9783 23.067C35.9783 23.4594 36.0736 23.7939 36.2634 24.0688C36.4541 24.3437 36.7298 24.4807 37.0898 24.4807C37.2694 24.4807 37.4328 24.4424 37.5783 24.3658C37.6881 24.3071 37.8098 24.1939 37.9426 24.0271V24.4194L38.8941 24.4194ZM37.7434 22.6177C37.8311 22.7198 37.8754 22.8756 37.8754 23.0841C37.8754 23.3148 37.8319 23.4807 37.746 23.5828C37.6592 23.6841 37.5519 23.7352 37.4226 23.7352C37.3017 23.7352 37.1996 23.685 37.1179 23.5837C37.0353 23.4824 36.9945 23.3241 36.9945 23.1071C36.9945 22.8747 37.0345 22.7096 37.1136 22.6117C37.1936 22.513 37.2924 22.4636 37.4098 22.4636C37.5443 22.4636 37.6558 22.5147 37.7434 22.6177Z" fill="#FFFFFE"/>
<path fill-rule="evenodd" clip-rule="evenodd" d="M34.6734 22.2014V21.769H33.7219V24.4193H34.7432V23.529C34.7432 23.1043 34.796 22.8141 34.9006 22.6593C34.9739 22.5494 35.0777 22.4941 35.2105 22.4941C35.2802 22.4941 35.3756 22.5188 35.4956 22.569L35.8105 21.8482C35.6326 21.7546 35.4683 21.7078 35.3176 21.7078C35.1747 21.7078 35.0547 21.7426 34.9569 21.8133C34.8598 21.8839 34.7653 22.0132 34.6734 22.2014Z" fill="#FFFFFE"/>
<path fill-rule="evenodd" clip-rule="evenodd" d="M33.104 22.684C33.104 22.5589 33.0794 22.4279 33.0291 22.2909C32.9798 22.1538 32.9117 22.0475 32.8248 21.9725C32.7023 21.8644 32.5483 21.793 32.3644 21.7589C32.1797 21.7249 31.9363 21.7079 31.6325 21.7079C31.4427 21.7079 31.2665 21.7223 31.104 21.7504C30.9414 21.7785 30.8137 21.8185 30.721 21.8704C30.5908 21.9419 30.492 22.0262 30.4231 22.124C30.3542 22.2211 30.3014 22.3547 30.2648 22.5249L31.235 22.627C31.2751 22.5112 31.327 22.433 31.3916 22.3904C31.4751 22.3368 31.5993 22.3104 31.7653 22.3104C31.8946 22.3104 31.9848 22.3351 32.0359 22.3853C32.0878 22.4355 32.1134 22.5223 32.1134 22.6475C31.9874 22.6977 31.8674 22.7377 31.7542 22.7683C31.641 22.7998 31.3942 22.8534 31.0137 22.93C30.6963 22.993 30.4784 23.09 30.3601 23.2202C30.2418 23.3504 30.1831 23.5164 30.1831 23.7181C30.1831 23.9326 30.2648 24.1139 30.429 24.2602C30.5925 24.4075 30.8325 24.4807 31.1482 24.4807C31.3857 24.4807 31.5942 24.4441 31.7738 24.3709C31.9057 24.3164 32.0376 24.2254 32.1704 24.0977C32.1823 24.1735 32.1942 24.2288 32.2053 24.2645C32.2172 24.3003 32.2418 24.3513 32.2802 24.4194H33.2309C33.1781 24.3096 33.1431 24.2194 33.1279 24.1488C33.1117 24.0781 33.104 23.9802 33.104 23.8552L33.104 22.684ZM31.6759 23.2917C31.8282 23.2526 31.9738 23.2083 32.1134 23.1581V23.3215C32.1134 23.4492 32.0929 23.553 32.052 23.633C32.0112 23.713 31.9423 23.7802 31.8452 23.8356C31.7474 23.8909 31.6419 23.919 31.5287 23.919C31.4205 23.919 31.3388 23.8934 31.2827 23.8424C31.2274 23.7913 31.1993 23.7249 31.1993 23.6441C31.1993 23.5735 31.2274 23.5104 31.2844 23.4551C31.3388 23.4015 31.4699 23.347 31.6759 23.2917Z" fill="#FFFFFE"/>
<path fill-rule="evenodd" clip-rule="evenodd" d="M29.7908 21.8398C29.6632 21.4534 29.4666 21.1674 29.2036 20.981C28.9398 20.7947 28.5772 20.7019 28.1167 20.7019C27.5278 20.7019 27.0725 20.8644 26.7499 21.1887C26.4282 21.5138 26.2673 21.9785 26.2673 22.5828C26.2673 23.0355 26.3592 23.4083 26.5422 23.6985C26.7252 23.9888 26.9422 24.1922 27.1941 24.308C27.4469 24.4228 27.7712 24.4807 28.1695 24.4807C28.4972 24.4807 28.7669 24.433 28.9789 24.3386C29.1916 24.2441 29.3687 24.1037 29.5117 23.9173C29.6555 23.7318 29.7602 23.4994 29.8266 23.222L28.8359 22.9232C28.7857 23.1539 28.7057 23.33 28.595 23.4509C28.4844 23.5726 28.321 23.633 28.1048 23.633C27.8818 23.633 27.709 23.5581 27.5857 23.4083C27.4623 23.2577 27.401 22.9811 27.401 22.576C27.401 22.25 27.4529 22.01 27.5559 21.8577C27.692 21.6526 27.8886 21.5496 28.1457 21.5496C28.2589 21.5496 28.361 21.5725 28.4529 21.6193C28.544 21.6653 28.6214 21.7317 28.6853 21.8176C28.7236 21.8687 28.7602 21.9496 28.7951 22.0602L29.7908 21.8398Z" fill="#FFFFFE"/>
<path fill-rule="evenodd" clip-rule="evenodd" d="M25.851 22.5691L26.1659 21.8483C25.9881 21.7547 25.8238 21.7079 25.6732 21.7079C25.5302 21.7079 25.4102 21.7427 25.3123 21.8134C25.2153 21.884 25.1209 22.0134 25.0289 22.2015V21.7692H24.0774V24.4194H25.0987V23.5292C25.0987 23.1045 25.1514 22.8142 25.2561 22.6594C25.3293 22.5496 25.4332 22.4942 25.5659 22.4942C25.6357 22.4942 25.731 22.5189 25.851 22.5691Z" fill="#FFFFFE"/>
<path fill-rule="evenodd" clip-rule="evenodd" d="M23.6024 23.2322C23.6024 22.8824 23.5454 22.5981 23.4305 22.3802C23.3156 22.1615 23.148 21.9955 22.9284 21.8806C22.7088 21.7658 22.4101 21.7079 22.0305 21.7079C21.5633 21.7079 21.1965 21.8364 20.9317 22.0926C20.6662 22.3487 20.5334 22.6849 20.5334 23.0994C20.5334 23.3905 20.5998 23.6441 20.7317 23.8602C20.8645 24.0756 21.0313 24.233 21.2321 24.3318C21.4339 24.4313 21.7096 24.4807 22.0611 24.4807C22.4654 24.4807 22.776 24.4228 22.9922 24.3071C23.2084 24.1922 23.3931 24.0007 23.5463 23.7351L22.5454 23.6432C22.4824 23.7224 22.4229 23.7777 22.3675 23.8092C22.2781 23.8585 22.1828 23.8832 22.0824 23.8832C21.9241 23.8832 21.7956 23.8262 21.6977 23.7113C21.6271 23.6313 21.5837 23.5096 21.565 23.347H23.6024L23.6024 23.2322ZM22.4118 22.4381C22.4977 22.5232 22.5514 22.6645 22.571 22.8619H21.5675C21.5845 22.7027 21.6237 22.5836 21.6849 22.5036C21.782 22.3751 21.9113 22.3104 22.0731 22.3104C22.2135 22.3104 22.3259 22.353 22.4118 22.4381Z" fill="#FFFFFE"/>
<path fill-rule="evenodd" clip-rule="evenodd" d="M20.1768 22.5147V21.7692H19.6202V20.7632L18.604 21.2832V21.7692H18.2312V22.5147H18.604V23.4467C18.604 23.742 18.633 23.9565 18.6899 24.0884C18.7478 24.2203 18.8364 24.319 18.9555 24.3837C19.0755 24.4484 19.2619 24.4807 19.5147 24.4807C19.7325 24.4807 19.9666 24.4535 20.2176 24.3982L20.1428 23.696C20.0074 23.7394 19.9028 23.7607 19.8279 23.7607C19.7445 23.7607 19.6858 23.7326 19.6525 23.6765C19.6313 23.6398 19.6202 23.5649 19.6202 23.4526V22.5147H20.1768Z" fill="#FFFFFE"/>
<path fill-rule="evenodd" clip-rule="evenodd" d="M11.2167 24.4195V20.7632H9.73317L9.16383 22.9879L8.5962 20.7632H7.10596V24.4195H8.03018V21.6322L8.74165 24.4195H9.57918L10.2924 21.6322V24.4195H11.2167Z" fill="#FFFFFE"/>
<path fill-rule="evenodd" clip-rule="evenodd" d="M11.8285 22.5249L12.7988 22.627C12.8388 22.5112 12.8907 22.433 12.9554 22.3904C13.0388 22.3368 13.163 22.3104 13.329 22.3104C13.4584 22.3104 13.5486 22.3351 13.5997 22.3853C13.6516 22.4355 13.6771 22.5223 13.6771 22.6475C13.5511 22.6977 13.4312 22.7377 13.318 22.7683C13.2047 22.7998 12.9579 22.8534 12.5775 22.93C12.26 22.993 12.0421 23.09 11.9239 23.2202C11.8056 23.3504 11.7468 23.5164 11.7468 23.7181C11.7468 23.9326 11.8285 24.1139 11.9928 24.2602C12.1562 24.4075 12.3962 24.4807 12.712 24.4807C12.9494 24.4807 13.1579 24.4441 13.3376 24.3709C13.4695 24.3164 13.6014 24.2253 13.7341 24.0977C13.746 24.1735 13.7579 24.2288 13.7691 24.2645C13.7809 24.3003 13.8056 24.3513 13.8439 24.4194H14.7946C14.7418 24.3096 14.7069 24.2194 14.6916 24.1488C14.6755 24.0781 14.6678 23.9802 14.6678 23.8551V22.684C14.6678 22.5589 14.6431 22.4279 14.5929 22.2909C14.5435 22.1538 14.4754 22.0475 14.3886 21.9725C14.266 21.8644 14.112 21.793 13.9282 21.7589C13.7435 21.7249 13.5001 21.7079 13.1962 21.7079C13.0064 21.7079 12.8303 21.7223 12.6677 21.7504C12.5051 21.7785 12.3775 21.8185 12.2847 21.8704C12.1545 21.9419 12.0558 22.0262 11.9868 22.124C11.9179 22.2211 11.8651 22.3547 11.8285 22.5249ZM13.2396 23.2917C13.392 23.2526 13.5375 23.2083 13.6771 23.1581V23.3215C13.6771 23.4492 13.6567 23.553 13.6158 23.633C13.575 23.713 13.506 23.7802 13.409 23.8356C13.3111 23.8909 13.2056 23.919 13.0924 23.919C12.9843 23.919 12.9026 23.8934 12.8464 23.8424C12.7911 23.7913 12.7631 23.7249 12.7631 23.6441C12.7631 23.5734 12.7911 23.5104 12.8482 23.4551C12.9026 23.4015 13.0336 23.347 13.2396 23.2917Z" fill="#FFFFFE"/>
<path fill-rule="evenodd" clip-rule="evenodd" d="M15.3608 22.0849C15.2595 22.2108 15.2093 22.3615 15.2093 22.536C15.2093 22.696 15.256 22.8381 15.3497 22.9632C15.4441 23.0874 15.5591 23.1768 15.6961 23.2287C15.834 23.2815 16.0782 23.3385 16.4305 23.3998C16.6663 23.4415 16.8119 23.4764 16.8663 23.5045C16.9429 23.5445 16.9812 23.6015 16.9812 23.6747C16.9812 23.7394 16.9523 23.7938 16.8936 23.8364C16.8187 23.8951 16.7131 23.9241 16.5769 23.9241C16.4519 23.9241 16.3523 23.8986 16.2774 23.8475C16.2024 23.7964 16.1446 23.7113 16.1029 23.5921L15.0969 23.6841C15.1548 23.9386 15.2867 24.1352 15.4918 24.273C15.6969 24.4117 16.0416 24.4807 16.525 24.4807C16.8672 24.4807 17.1378 24.4381 17.3361 24.3522C17.5344 24.2662 17.68 24.1513 17.7719 24.0066C17.8646 23.862 17.9106 23.713 17.9106 23.5598C17.9106 23.4083 17.8672 23.2696 17.7795 23.1428C17.6927 23.016 17.5667 22.9189 17.4025 22.8508C17.2374 22.7828 16.9872 22.7291 16.6493 22.6909C16.4271 22.6645 16.2825 22.6347 16.2169 22.6006C16.1514 22.5675 16.1182 22.5189 16.1182 22.4534C16.1182 22.3955 16.1446 22.3462 16.1965 22.3053C16.2484 22.2645 16.3319 22.244 16.4459 22.244C16.559 22.244 16.6552 22.2704 16.7344 22.3232C16.7923 22.3631 16.834 22.4253 16.8586 22.5096L17.8187 22.4177C17.7523 22.2441 17.6689 22.107 17.5684 22.0049C17.4681 21.9036 17.3429 21.8287 17.1923 21.7802C17.0425 21.7317 16.8093 21.7079 16.4944 21.7079C16.1956 21.7079 15.9573 21.7393 15.7795 21.8015C15.6016 21.8636 15.462 21.9581 15.3608 22.0849Z" fill="#FFFFFE"/>
</svg>
