<svg width="36" height="36" viewBox="0 0 36 36" fill="none" xmlns="http://www.w3.org/2000/svg">
<path fill-rule="evenodd" clip-rule="evenodd" d="M17.3778 3.45405e-07H18.6222C21.8707 -1.84274e-05 24.4317 -3.31476e-05 26.4667 0.220451C28.5488 0.446027 30.2583 0.9168 31.7235 1.98133C32.6043 2.62122 33.3788 3.39575 34.0187 4.27647C35.0832 5.74168 35.554 7.45122 35.7795 9.53327C36 11.5683 36 14.1293 36 17.3778V18.6222C36 21.8707 36 24.4317 35.7795 26.4667C35.554 28.5488 35.0832 30.2583 34.0187 31.7235C33.3788 32.6043 32.6043 33.3788 31.7235 34.0187C30.2583 35.0832 28.5488 35.554 26.4667 35.7795C24.4317 36 21.8707 36 18.6222 36H17.3778C14.1293 36 11.5683 36 9.53327 35.7795C7.45122 35.554 5.74168 35.0832 4.27647 34.0187C3.39575 33.3788 2.62122 32.6043 1.98133 31.7235C0.9168 30.2583 0.446028 28.5488 0.220451 26.4667C-3.31476e-05 24.4317 -1.84274e-05 21.8707 3.45415e-07 18.6222V17.3778C-1.84274e-05 14.1293 -3.31476e-05 11.5683 0.220451 9.53327C0.446027 7.45122 0.9168 5.74168 1.98133 4.27647C2.62122 3.39575 3.39575 2.62122 4.27647 1.98133C5.74168 0.9168 7.45122 0.446028 9.53327 0.220451C11.5683 -3.31476e-05 14.1293 -1.84274e-05 17.3778 3.45405e-07ZM9.858 3.21769C8.03246 3.41548 6.91414 3.79143 6.04852 4.42034C5.42373 4.87428 4.87428 5.42373 4.42034 6.04852C3.79143 6.91414 3.41548 8.03246 3.21769 9.858C3.01685 11.7118 3.01478 14.1095 3.01478 17.468V18.532C3.01478 21.8905 3.01685 24.2882 3.21769 26.142C3.41548 27.9675 3.79143 29.0859 4.42034 29.9515C4.87428 30.5763 5.42373 31.1257 6.04852 31.5797C6.91414 32.2086 8.03246 32.5845 9.858 32.7823C11.7118 32.9832 14.1095 32.9852 17.468 32.9852H18.532C21.8905 32.9852 24.2882 32.9832 26.142 32.7823C27.9675 32.5845 29.0859 32.2086 29.9515 31.5797C30.5763 31.1257 31.1257 30.5763 31.5797 29.9515C32.2086 29.0859 32.5845 27.9675 32.7823 26.142C32.9832 24.2882 32.9852 21.8905 32.9852 18.532V17.468C32.9852 14.1095 32.9832 11.7118 32.7823 9.858C32.5845 8.03246 32.2086 6.91414 31.5797 6.04852C31.1257 5.42373 30.5763 4.87428 29.9515 4.42034C29.0859 3.79143 27.9675 3.41548 26.142 3.21769C24.2882 3.01685 21.8905 3.01478 18.532 3.01478H17.468C14.1095 3.01478 11.7118 3.01685 9.858 3.21769Z" fill="#BEBEBE"/>
<path fill-rule="evenodd" clip-rule="evenodd" d="M18 11.8818C14.621 11.8818 11.8818 14.621 11.8818 18C11.8818 21.379 14.621 24.1182 18 24.1182C21.379 24.1182 24.1182 21.379 24.1182 18C24.1182 14.621 21.379 11.8818 18 11.8818ZM8.86699 18C8.86699 12.956 12.956 8.867 18 8.867C23.044 8.867 27.133 12.956 27.133 18C27.133 23.044 23.044 27.133 18 27.133C12.956 27.133 8.86699 23.044 8.86699 18Z" fill="#BEBEBE"/>
<path d="M25.6256 8.35714C25.6256 7.21857 26.5486 6.29557 27.6872 6.29557C28.8258 6.29557 29.7488 7.21857 29.7488 8.35714C29.7488 9.49572 28.8258 10.4187 27.6872 10.4187C26.5486 10.4187 25.6256 9.49572 25.6256 8.35714Z" fill="#BEBEBE"/>
</svg>
