<svg width="19" height="19" viewBox="0 0 19 19" fill="none" xmlns="http://www.w3.org/2000/svg">
<path d="M16.5312 0.125H2.46875C1.8473 0.125491 1.25144 0.372579 0.812011 0.812011C0.372579 1.25144 0.125491 1.8473 0.125 2.46875V16.5312C0.125491 17.1527 0.372579 17.7486 0.812011 18.188C1.25144 18.6274 1.8473 18.8745 2.46875 18.875H16.5312C17.1527 18.8745 17.7486 18.6274 18.188 18.188C18.6274 17.7486 18.8745 17.1527 18.875 16.5312V2.46875C18.8745 1.8473 18.6274 1.25144 18.188 0.812011C17.7486 0.372579 17.1527 0.125491 16.5312 0.125ZM13.957 12.8555C14.0299 12.9277 14.0877 13.0136 14.1273 13.1082C14.1669 13.2029 14.1874 13.3044 14.1876 13.407C14.1878 13.5095 14.1678 13.6111 14.1286 13.7059C14.0895 13.8008 14.032 13.8869 13.9594 13.9594C13.8869 14.032 13.8008 14.0895 13.7059 14.1286C13.6111 14.1678 13.5095 14.1878 13.407 14.1876C13.3044 14.1874 13.2029 14.1669 13.1082 14.1273C13.0136 14.0877 12.9277 14.0299 12.8555 13.957L9.5 10.6055L6.14453 13.957C5.99846 14.1031 5.80033 14.1852 5.59375 14.1852C5.38717 14.1852 5.18904 14.1031 5.04297 13.957C4.89689 13.811 4.81483 13.6128 4.81483 13.4062C4.81483 13.1997 4.89689 13.0015 5.04297 12.8555L8.39453 9.5L5.04297 6.14453C4.89689 5.99846 4.81483 5.80033 4.81483 5.59375C4.81483 5.38717 4.89689 5.18904 5.04297 5.04297C5.18904 4.89689 5.38717 4.81483 5.59375 4.81483C5.80033 4.81483 5.99846 4.89689 6.14453 5.04297L9.5 8.39453L12.8555 5.04297C13.0015 4.89689 13.1997 4.81483 13.4062 4.81483C13.6128 4.81483 13.811 4.89689 13.957 5.04297C14.1031 5.18904 14.1852 5.38717 14.1852 5.59375C14.1852 5.80033 14.1031 5.99846 13.957 6.14453L10.6055 9.5L13.957 12.8555Z" fill="#7E2527"/>
<path d="M13.9567 12.8555C14.0295 12.9277 14.0874 13.0136 14.1269 13.1082C14.1665 13.2029 14.187 13.3044 14.1872 13.407C14.1874 13.5095 14.1674 13.6111 14.1282 13.7059C14.0891 13.8008 14.0316 13.8869 13.9591 13.9594C13.8865 14.032 13.8004 14.0895 13.7056 14.1286C13.6108 14.1678 13.5092 14.1878 13.4066 14.1876C13.304 14.1874 13.2025 14.1669 13.1078 14.1273C13.0132 14.0877 12.9273 14.0299 12.8551 13.957L9.49963 10.6055L6.14416 13.957C5.99808 14.1031 5.79996 14.1852 5.59338 14.1852C5.38679 14.1852 5.18867 14.1031 5.04259 13.957C4.89652 13.811 4.81445 13.6128 4.81445 13.4062C4.81445 13.1997 4.89652 13.0015 5.04259 12.8555L8.39416 9.5L5.04259 6.14453C4.89652 5.99845 4.81445 5.80033 4.81445 5.59375C4.81445 5.38717 4.89652 5.18904 5.04259 5.04297C5.18867 4.89689 5.38679 4.81483 5.59338 4.81483C5.79996 4.81483 5.99808 4.89689 6.14416 5.04297L9.49963 8.39453L12.8551 5.04297C13.0012 4.89689 13.1993 4.81483 13.4059 4.81483C13.6125 4.81483 13.8106 4.89689 13.9567 5.04297C14.1027 5.18904 14.1848 5.38717 14.1848 5.59375C14.1848 5.80033 14.1027 5.99845 13.9567 6.14453L10.6051 9.5L13.9567 12.8555Z" fill="white"/>
</svg>
