<svg width="35" height="35" viewBox="0 0 35 35" fill="none" xmlns="http://www.w3.org/2000/svg">
<circle cx="17.5" cy="17.5" r="17.5" fill="#747474"/>
<path d="M25.9761 14.5938C25.6549 14.5938 25.3469 14.4662 25.1198 14.2391C24.8927 14.012 24.7651 13.704 24.7651 13.3828V10.1974H21.584C21.2628 10.1974 20.9548 10.0699 20.7277 9.84277C20.5006 9.61568 20.373 9.30767 20.373 8.98651C20.373 8.66535 20.5006 8.35734 20.7277 8.13025C20.9548 7.90315 21.2628 7.77557 21.584 7.77557H25.4118C25.8827 7.7767 26.3339 7.96442 26.6667 8.29762C26.9994 8.63082 27.1865 9.08233 27.187 9.55323V13.3828C27.187 13.704 27.0594 14.012 26.8323 14.2391C26.6052 14.4662 26.2972 14.5938 25.9761 14.5938Z" fill="white"/>
<path d="M20.5992 15.5782C20.3596 15.5786 20.1253 15.5078 19.9259 15.3748C19.7265 15.2419 19.5711 15.0528 19.4792 14.8315C19.3874 14.6102 19.3632 14.3666 19.4099 14.1316C19.4565 13.8966 19.5719 13.6806 19.7413 13.5112L24.7612 8.49184C24.9896 8.27126 25.2955 8.1492 25.613 8.15196C25.9305 8.15472 26.2342 8.28207 26.4587 8.50659C26.6832 8.73111 26.8106 9.03483 26.8134 9.35233C26.8161 9.66984 26.6941 9.97572 26.4735 10.2041L21.4541 15.224C21.2273 15.4506 20.9198 15.578 20.5992 15.5782Z" fill="white"/>
<path d="M8.98242 14.6198C8.8234 14.6198 8.66593 14.5885 8.51902 14.5276C8.3721 14.4668 8.23861 14.3776 8.12616 14.2651C8.01371 14.1527 7.92452 14.0192 7.86366 13.8723C7.80281 13.7253 7.77148 13.5679 7.77148 13.4089V9.58109C7.77197 9.10961 7.95947 8.65758 8.29286 8.3242C8.62624 7.99081 9.07827 7.80331 9.54975 7.80283H13.3775C13.6987 7.80283 14.0067 7.93041 14.2338 8.1575C14.4609 8.3846 14.5885 8.6926 14.5885 9.01376C14.5885 9.33492 14.4609 9.64293 14.2338 9.87003C14.0067 10.0971 13.6987 10.2247 13.3775 10.2247H10.1934V13.4089C10.1934 13.5679 10.162 13.7253 10.1012 13.8723C10.0403 14.0192 9.95113 14.1527 9.83868 14.2651C9.72624 14.3776 9.59275 14.4668 9.44583 14.5276C9.29891 14.5885 9.14144 14.6198 8.98242 14.6198Z" fill="white"/>
<path d="M14.3634 15.6061C14.0423 15.606 13.7343 15.4784 13.5073 15.2513L8.48735 10.2344C8.26029 10.0073 8.13276 9.69922 8.13281 9.37805C8.13287 9.05688 8.26051 8.74889 8.48765 8.52183C8.71479 8.29477 9.02283 8.16724 9.344 8.1673C9.66516 8.16735 9.97316 8.29499 10.2002 8.52213L15.2196 13.5415C15.3891 13.7108 15.5045 13.9266 15.5514 14.1616C15.5982 14.3965 15.5742 14.6401 15.4826 14.8615C15.3909 15.0828 15.2357 15.272 15.0365 15.4051C14.8372 15.5382 14.603 15.6092 14.3634 15.6091V15.6061Z" fill="white"/>
<path d="M13.3951 27.2396H9.56854C9.09695 27.2394 8.64471 27.0521 8.31108 26.7189C7.97745 26.3856 7.7897 25.9335 7.78906 25.4619V21.6342C7.78906 21.313 7.91664 21.005 8.14374 20.7779C8.37083 20.5508 8.67884 20.4232 9 20.4232C9.32116 20.4232 9.62917 20.5508 9.85626 20.7779C10.0834 21.005 10.2109 21.313 10.2109 21.6342V24.8177H13.3951C13.7163 24.8177 14.0243 24.9453 14.2514 25.1724C14.4785 25.3995 14.606 25.7075 14.606 26.0286C14.606 26.3498 14.4785 26.6578 14.2514 26.8849C14.0243 27.112 13.7163 27.2396 13.3951 27.2396Z" fill="white"/>
<path d="M9.36107 26.8781C9.12161 26.8781 8.88753 26.807 8.68844 26.674C8.48935 26.5409 8.33419 26.3518 8.24255 26.1306C8.15092 25.9093 8.12694 25.6659 8.17364 25.431C8.22035 25.1962 8.33564 24.9804 8.50494 24.8111L13.5249 19.7911C13.752 19.5641 14.0601 19.4365 14.3812 19.4366C14.7024 19.4366 15.0104 19.5643 15.2374 19.7914C15.4645 20.0186 15.592 20.3266 15.592 20.6478C15.5919 20.9689 15.4643 21.2769 15.2371 21.504L10.2178 26.5215C10.1056 26.6345 9.97211 26.7242 9.82507 26.7854C9.67803 26.8466 9.52034 26.8781 9.36107 26.8781Z" fill="white"/>
<path d="M25.4312 27.2123H21.6016C21.2804 27.2123 20.9724 27.0848 20.7453 26.8577C20.5182 26.6306 20.3906 26.3226 20.3906 26.0014C20.3906 25.6802 20.5182 25.3722 20.7453 25.1451C20.9724 24.918 21.2804 24.7905 21.6016 24.7905H24.7851V21.6069C24.7851 21.2857 24.9127 20.9777 25.1398 20.7506C25.3669 20.5235 25.6749 20.396 25.9961 20.396C26.3172 20.396 26.6252 20.5235 26.8523 20.7506C27.0794 20.9777 27.207 21.2857 27.207 21.6069V25.4347C27.2065 25.9057 27.0193 26.3573 26.6864 26.6905C26.3536 27.0237 25.9022 27.2114 25.4312 27.2123Z" fill="white"/>
<path d="M25.6351 26.8509C25.4761 26.8511 25.3185 26.8199 25.1716 26.759C25.0247 26.6981 24.8912 26.6087 24.779 26.4961L19.759 21.4767C19.5319 21.2496 19.4043 20.9415 19.4043 20.6203C19.4043 20.2991 19.5319 19.991 19.759 19.7639C19.9862 19.5367 20.2943 19.4091 20.6155 19.4091C20.9367 19.4091 21.2448 19.5367 21.4719 19.7639L26.4913 24.7838C26.6606 24.9532 26.7758 25.1689 26.8225 25.4038C26.8692 25.6386 26.8453 25.8821 26.7536 26.1033C26.662 26.3245 26.5068 26.5137 26.3077 26.6467C26.1087 26.7798 25.8746 26.8508 25.6351 26.8509Z" fill="white"/>
</svg>
