<svg width="35" height="35" viewBox="0 0 35 35" fill="none" xmlns="http://www.w3.org/2000/svg">
<g clip-path="url(#clip0_227_6594)">
<path d="M17.5 0C7.85011 0 0 7.85011 0 17.5C0 27.1499 7.85011 35 17.5 35C27.1499 35 35 27.1499 35 17.5C35 7.85011 27.1499 0 17.5 0Z" fill="#747474"/>
<path d="M25.1555 18.9582H18.9575V25.1562C18.9575 25.9613 18.3044 26.6145 17.4993 26.6145C16.6942 26.6145 16.041 25.9613 16.041 25.1562V18.9582H9.84301C9.03792 18.9582 8.38477 18.3051 8.38477 17.5C8.38477 16.6949 9.03792 16.0417 9.84301 16.0417H16.041V9.84374C16.041 9.03865 16.6942 8.3855 17.4993 8.3855C18.3044 8.3855 18.9575 9.03865 18.9575 9.84374V16.0417H25.1555C25.9606 16.0417 26.6138 16.6949 26.6138 17.5C26.6138 18.3051 25.9606 18.9582 25.1555 18.9582Z" fill="white"/>
</g>
<defs>
<clipPath id="clip0_227_6594">
<rect width="35" height="35" fill="white"/>
</clipPath>
</defs>
</svg>
