<svg width="20" height="20" viewBox="0 0 20 20" fill="none" xmlns="http://www.w3.org/2000/svg">
<path fill-rule="evenodd" clip-rule="evenodd" d="M4.90986 3.60032C5.84593 2.68466 7.38733 2.84736 8.17111 3.87805L9.1418 5.1524C9.7802 5.99087 9.72329 7.16231 8.96566 7.90316L8.7826 8.08327C8.76184 8.15887 8.75973 8.23826 8.77645 8.31483C8.8249 8.62358 9.08719 9.27741 10.1856 10.352C11.2839 11.4266 11.9531 11.6838 12.2715 11.7323C12.3518 11.7482 12.4346 11.7458 12.5138 11.7255L12.8276 11.4182C13.5014 10.7599 14.5352 10.6365 15.369 11.0822L16.8381 11.8692C18.0972 12.5412 18.4148 14.2242 17.3842 15.233L16.2912 16.3015C15.9466 16.6382 15.4836 16.919 14.919 16.9712C13.5268 17.0991 10.2832 16.9356 6.87353 13.6007C3.6915 10.4874 3.08078 7.77224 3.0031 6.43432C2.96464 5.7578 3.28923 5.1857 3.70304 4.7816L4.90986 3.60032ZM7.24812 4.55836C6.85815 4.04604 6.13206 4.00518 5.72286 4.4055L4.51527 5.58601C4.26145 5.83423 4.13992 6.10817 4.15531 6.37C4.21684 7.43322 4.7091 9.8828 7.68731 12.7963C10.8117 15.852 13.6968 15.9436 14.8121 15.8406C15.0398 15.8202 15.2659 15.7037 15.4774 15.4971L16.5696 14.4278C17.0142 13.9934 16.9165 13.2019 16.2873 12.8659L14.8182 12.0796C14.4121 11.8632 13.9368 11.9343 13.6414 12.2234L13.2914 12.5662L12.8838 12.1636C13.2914 12.5662 13.2907 12.567 13.2899 12.567L13.2891 12.5685L13.2868 12.5708L13.2814 12.5753L13.2699 12.5859C13.2374 12.6155 13.2024 12.6424 13.1653 12.6661C13.1038 12.7062 13.0222 12.7509 12.9199 12.7879C12.7123 12.8644 12.4369 12.9052 12.0969 12.8538C11.4301 12.7531 10.5463 12.3059 9.37178 11.1572C8.19803 10.0084 7.73961 9.14422 7.63654 8.48888C7.58347 8.1544 7.62578 7.88349 7.70423 7.67916C7.74741 7.56419 7.80923 7.45686 7.88729 7.36133L7.9119 7.33485L7.92267 7.3235L7.92729 7.31895L7.9296 7.31668L7.93113 7.31517L8.15265 7.09874C8.48186 6.77561 8.52801 6.2406 8.21803 5.83271L7.24812 4.55836Z" fill="white"/>
</svg>
