<svg width="26" height="26" viewBox="0 0 26 26" fill="none" xmlns="http://www.w3.org/2000/svg">
<path d="M6.81583 19.9983C5.3276 18.7825 4.5415 17.0323 4.5415 14.9421V5.00601C6.89161 3.7629 9.73726 3.13287 12.9999 3.13287C16.2625 3.13287 19.1084 3.7629 21.4582 5.00601V14.9421C21.4582 17.0323 20.6721 18.7812 19.1839 19.9983C17.8224 21.1118 13.4964 23.006 12.9995 23.2215C12.5034 23.006 8.17734 21.1121 6.81583 19.9983Z" fill="#330000"/>
<path d="M20.9952 4.88929C19.9079 4.78857 18.7784 4.72206 17.6279 4.72206C13.361 4.72206 8.78658 5.63729 5.00485 9.09835V15.0142C5.00485 16.941 5.71893 18.55 7.07573 19.6535C8.27373 20.6261 11.9605 22.2922 13 22.7499C14.0264 22.2991 17.7037 20.655 18.9228 19.6535C20.2881 18.5308 20.9952 16.9592 20.9952 15.0142V4.88929ZM5.78654 14.3987V9.59409H7.31753V14.4664C7.31753 14.9 7.42255 15.542 8.12469 15.542C8.37914 15.5522 8.63089 15.4867 8.8479 15.3537V9.59409H10.377V16.225C9.68642 16.6551 8.88253 16.8689 8.06903 16.8387C6.55345 16.8387 5.78496 16.018 5.78496 14.3987M12.6969 19.9443H11.165V9.98314C11.7847 9.60336 12.5028 9.41423 13.2296 9.4394C15.058 9.4394 16.0627 10.8237 16.0627 13.0517C16.0627 15.2797 15.0879 16.8124 13.3868 16.8124C13.154 16.8166 12.9217 16.7873 12.6972 16.7255L12.6969 19.9443ZM12.6969 15.4764C12.856 15.5359 13.0242 15.5671 13.194 15.5687C14.0745 15.5687 14.4964 14.7614 14.4964 13.09C14.4964 11.3778 14.1282 10.6696 13.2387 10.6696C13.0521 10.6681 12.8672 10.7056 12.696 10.7798L12.6969 15.4764ZM16.4098 11.4314C16.4194 10.8959 16.6409 10.3859 17.0259 10.0127C17.4109 9.63953 17.9282 9.43343 18.4649 9.4394C19.0657 9.40762 19.6592 9.58287 20.1459 9.93577V11.2652C19.7852 10.8896 19.2946 10.6652 18.774 10.6376C18.3398 10.6339 17.888 10.8243 17.8732 11.3678C17.8584 11.924 18.3093 12.1437 18.8794 12.4781C20.1588 13.2287 20.4063 13.9032 20.3767 14.7946C20.3475 15.772 19.6724 16.8394 18.159 16.8394C17.5655 16.8327 16.9845 16.669 16.4752 16.365V14.9571C16.8798 15.3219 17.3952 15.5409 17.9392 15.579C18.5011 15.5818 18.8709 15.2605 18.8577 14.7275C18.846 14.2477 18.5747 13.987 17.9008 13.592C16.6378 12.8528 16.4107 12.2444 16.4085 11.4314M6.5632 20.2766C5.01334 19.0099 4.1958 17.1898 4.1958 15.0142V4.67186C6.64181 3.37792 9.60412 2.72217 13 2.72217C16.396 2.72217 19.3583 3.37792 21.8043 4.67186V15.0142C21.8043 17.1898 20.9867 19.0099 19.4369 20.2769C18.02 21.4359 13.517 23.4073 13 23.6316C12.4831 23.4073 7.98005 21.4359 6.5632 20.2766ZM18.62 22.4443V23.342H18.7822V22.9674H18.8052C18.8174 22.9856 19.0495 23.342 19.0495 23.342H19.246C19.246 23.342 18.9995 22.9821 18.9743 22.9482C19.0305 22.9387 19.0815 22.9094 19.118 22.8657C19.1545 22.822 19.1741 22.7667 19.1734 22.7098C19.1741 22.6719 19.1666 22.6342 19.1513 22.5995C19.1361 22.5648 19.1134 22.5338 19.0849 22.5087C19.0564 22.4836 19.0228 22.465 18.9864 22.4541C18.95 22.4433 18.9116 22.4405 18.874 22.4459L18.62 22.4443ZM18.8564 22.5755C18.9945 22.5755 19.0136 22.6429 19.0136 22.701C19.0136 22.7851 18.9775 22.8419 18.8036 22.8419H18.7825V22.5749L18.8564 22.5755ZM19.4916 22.8955C19.4913 23.0156 19.4554 23.133 19.3884 23.2328C19.3213 23.3325 19.2262 23.4102 19.1149 23.4561C19.0036 23.5019 18.8812 23.5138 18.7632 23.4902C18.6451 23.4667 18.5367 23.4088 18.4516 23.3238C18.3665 23.2388 18.3086 23.1306 18.2851 23.0128C18.2617 22.8949 18.2737 22.7728 18.3198 22.6618C18.3658 22.5508 18.4438 22.456 18.5438 22.3892C18.6439 22.3224 18.7615 22.2866 18.8819 22.2865C18.962 22.2864 19.0414 22.3021 19.1155 22.3327C19.1895 22.3633 19.2568 22.4082 19.3134 22.4647C19.3701 22.5213 19.4149 22.5885 19.4455 22.6624C19.4761 22.7363 19.4917 22.8156 19.4916 22.8955ZM18.88 22.1566C18.7339 22.1568 18.5911 22.2002 18.4697 22.2813C18.3483 22.3624 18.2537 22.4776 18.1978 22.6123C18.142 22.7471 18.1274 22.8953 18.1559 23.0383C18.1845 23.1813 18.2548 23.3126 18.3581 23.4157C18.4614 23.5189 18.593 23.5891 18.7363 23.6177C18.8796 23.6462 19.0281 23.6317 19.1632 23.576C19.2982 23.5204 19.4137 23.426 19.4951 23.3049C19.5764 23.1838 19.6199 23.0413 19.6202 22.8955C19.6199 22.6997 19.5419 22.5119 19.4031 22.3734C19.2644 22.2349 19.0763 22.157 18.88 22.1566Z" fill="#FFBE00"/>
</svg>
